<?xml version="1.0" encoding="utf-8" standalone="no"?>
<!DOCTYPE svg PUBLIC "-//W3C//DTD SVG 1.1//EN"
  "http://www.w3.org/Graphics/SVG/1.1/DTD/svg11.dtd">
<svg xmlns:xlink="http://www.w3.org/1999/xlink" width="349.2pt" height="236.16pt" viewBox="0 0 349.2 236.16" xmlns="http://www.w3.org/2000/svg" version="1.1">
 <metadata>
  <rdf:RDF xmlns:dc="http://purl.org/dc/elements/1.1/" xmlns:cc="http://creativecommons.org/ns#" xmlns:rdf="http://www.w3.org/1999/02/22-rdf-syntax-ns#">
   <cc:Work>
    <dc:type rdf:resource="http://purl.org/dc/dcmitype/StillImage"/>
    <dc:date>2024-03-24T16:03:47.465486</dc:date>
    <dc:format>image/svg+xml</dc:format>
    <dc:creator>
     <cc:Agent>
      <dc:title>Matplotlib v3.8.0, https://matplotlib.org/</dc:title>
     </cc:Agent>
    </dc:creator>
   </cc:Work>
  </rdf:RDF>
 </metadata>
 <defs>
  <style type="text/css">*{stroke-linejoin: round; stroke-linecap: butt}</style>
 </defs>
 <g id="figure_1">
  <g id="patch_1">
   <path d="M 0 236.16 
L 349.2 236.16 
L 349.2 0 
L 0 0 
z
" style="fill: #ffffff"/>
  </g>
  <g id="axes_1">
   <g id="line2d_1">
    <path d="M 22.418182 218.88 
L 56.8457 218.767458 
L 66.290418 218.522087 
L 72.688452 218.139501 
L 77.563145 217.629643 
L 81.523833 217.00231 
L 84.875184 216.266172 
L 87.921867 215.386276 
L 90.663882 214.382504 
L 93.405897 213.137208 
L 95.843243 211.792086 
L 98.28059 210.187867 
L 100.717936 208.288743 
L 102.850614 206.355648 
L 104.983292 204.142294 
L 107.115971 201.622753 
L 109.248649 198.771472 
L 111.381327 195.56388 
L 113.514005 191.977067 
L 115.646683 187.990537 
L 118.084029 182.923057 
L 120.521376 177.291825 
L 122.958722 171.086185 
L 125.396069 164.305683 
L 128.138084 156.005026 
L 131.184767 145.990448 
L 134.536118 134.109415 
L 138.192138 120.301666 
L 143.371499 99.783894 
L 150.683538 70.827482 
L 154.034889 58.422631 
L 156.776904 49.042495 
L 159.214251 41.458254 
L 161.346929 35.511887 
L 163.174939 30.992298 
L 165.002948 27.054521 
L 166.52629 24.247124 
L 168.049631 21.892716 
L 169.268305 20.347099 
L 170.486978 19.109886 
L 171.705651 18.186974 
L 172.924324 17.582779 
L 173.838329 17.340592 
L 174.752334 17.28 
L 175.666339 17.401166 
L 176.580344 17.703764 
L 177.799017 18.387969 
L 179.01769 19.389929 
L 180.236364 20.704853 
L 181.455037 22.326479 
L 182.978378 24.772976 
L 184.50172 27.668609 
L 186.32973 31.706344 
L 188.15774 36.318546 
L 190.290418 42.362608 
L 192.727764 50.043586 
L 195.469779 59.512215 
L 198.82113 71.994819 
L 203.391155 89.999052 
L 212.226536 124.987194 
L 215.882555 138.526058 
L 219.233907 150.092027 
L 222.28059 159.780429 
L 225.022604 167.767379 
L 227.764619 175.032287 
L 230.201966 180.878186 
L 232.639312 186.155244 
L 235.076658 190.87967 
L 237.514005 195.075203 
L 239.646683 198.335615 
L 241.779361 201.236325 
L 243.912039 203.801708 
L 246.044717 206.057218 
L 248.177396 208.028763 
L 250.614742 209.967359 
L 253.052088 211.606443 
L 255.489435 212.982065 
L 258.23145 214.256831 
L 260.973464 215.285406 
L 264.020147 216.188004 
L 267.371499 216.944017 
L 271.332187 217.589136 
L 275.902211 218.088267 
L 281.386241 218.452701 
L 288.69828 218.701731 
L 299.971007 218.839052 
L 326.781818 218.88 
L 326.781818 218.88 
" clip-path="url(#p4218bb22d2)" style="fill: none; stroke: #ffff00; stroke-width: 4.7; stroke-linecap: square"/>
   </g>
  </g>
 </g>
 <defs>
  <clipPath id="p4218bb22d2">
   <rect x="7.2" y="7.2" width="334.8" height="221.76"/>
  </clipPath>
 </defs>
</svg>
